  0
SECTION
  2
HEADER
  9
$ACADVER
  1
AC1012
  9
$DWGCODEPAGE
  3
undefined
  9
$INSBASE
 10
0.0
 20
0.0
 30
0.0
  9
$EXTMIN
 10
1.000000000000000E+20
 20
1.000000000000000E+20
 30
1.000000000000000E+20
  9
$EXTMAX
 10
-1.000000000000000E+20
 20
-1.000000000000000E+20
 30
-1.000000000000000E+20
  9
$LIMMIN
 10
0.0
 20
0.0
  9
$LIMMAX
 10
12.0
 20
9.0
  9
$ORTHOMODE
 70
     0
  9
$REGENMODE
 70
     1
  9
$FILLMODE
 70
     1
  9
$QTEXTMODE
 70
     0
  9
$MIRRTEXT
 70
     1
  9
$DRAGMODE
 70
     2
  9
$LTSCALE
 40
1.0
  9
$OSMODE
 70
    37
  9
$ATTMODE
 70
     1
  9
$TEXTSIZE
 40
0.2
  9
$TRACEWID
 40
0.05
  9
$TEXTSTYLE
  7
STANDARD
  9
$CLAYER
  8
0
  9
$CELTYPE
  6
BYLAYER
  9
$CECOLOR
 62
   256
  9
$CELTSCALE
 40
1.0
  9
$DELOBJ
 70
     1
  9
$DISPSILH
 70
     0
  9
$DIMSCALE
 40
1.0
  9
$DIMASZ
 40
0.18
  9
$DIMEXO
 40
0.0625
  9
$DIMDLI
 40
0.38
  9
$DIMRND
 40
0.0
  9
$DIMDLE
 40
0.0
  9
$DIMEXE
 40
0.18
  9
$DIMTP
 40
0.0
  9
$DIMTM
 40
0.0
  9
$DIMTXT
 40
0.18
  9
$DIMCEN
 40
0.09
  9
$DIMTSZ
 40
0.0
  9
$DIMTOL
 70
     0
  9
$DIMLIM
 70
     0
  9
$DIMTIH
 70
     1
  9
$DIMTOH
 70
     1
  9
$DIMSE1
 70
     0
  9
$DIMSE2
 70
     0
  9
$DIMTAD
 70
     0
  9
$DIMZIN
 70
     0
  9
$DIMBLK
  1

  9
$DIMASO
 70
     1
  9
$DIMSHO
 70
     1
  9
$DIMPOST
  1

  9
$DIMAPOST
  1

  9
$DIMALT
 70
     0
  9
$DIMALTD
 70
     2
  9
$DIMALTF
 40
25.4
  9
$DIMLFAC
 40
1.0
  9
$DIMTOFL
 70
     0
  9
$DIMTVP
 40
0.0
  9
$DIMTIX
 70
     0
  9
$DIMSOXD
 70
     0
  9
$DIMSAH
 70
     0
  9
$DIMBLK1
  1

  9
$DIMBLK2
  1

  9
$DIMSTYLE
  2
STANDARD
  9
$DIMCLRD
 70
     0
  9
$DIMCLRE
 70
     0
  9
$DIMCLRT
 70
     0
  9
$DIMTFAC
 40
1.0
  9
$DIMGAP
 40
0.09
  9
$DIMJUST
 70
     0
  9
$DIMSD1
 70
     0
  9
$DIMSD2
 70
     0
  9
$DIMTOLJ
 70
     1
  9
$DIMTZIN
 70
     0
  9
$DIMALTZ
 70
     0
  9
$DIMALTTZ
 70
     0
  9
$DIMFIT
 70
     3
  9
$DIMUPT
 70
     0
  9
$DIMUNIT
 70
     2
  9
$DIMDEC
 70
     4
  9
$DIMTDEC
 70
     4
  9
$DIMALTU
 70
     2
  9
$DIMALTTD
 70
     2
  9
$DIMTXSTY
  7
STANDARD
  9
$DIMAUNIT
 70
     0
  9
$LUNITS
 70
     2
  9
$LUPREC
 70
     4
  9
$SKETCHINC
 40
0.1
  9
$FILLETRAD
 40
0.5
  9
$AUNITS
 70
     0
  9
$AUPREC
 70
     0
  9
$MENU
  1
.
  9
$ELEVATION
 40
0.0
  9
$PELEVATION
 40
0.0
  9
$THICKNESS
 40
0.0
  9
$LIMCHECK
 70
     0
  9
$CHAMFERA
 40
0.5
  9
$CHAMFERB
 40
0.5
  9
$CHAMFERC
 40
1.0
  9
$CHAMFERD
 40
0.0
  9
$SKPOLY
 70
     0
  9
$TDCREATE
 40
2458260.471377315
  9
$TDUPDATE
 40
2458260.471377315
  9
$TDINDWG
 40
0.0000000116
  9
$TDUSRTIMER
 40
0.0000000116
  9
$USRTIMER
 70
     1
  9
$ANGBASE
 50
0.0
  9
$ANGDIR
 70
     0
  9
$PDMODE
 70
     0
  9
$PDSIZE
 40
0.0
  9
$PLINEWID
 40
0.0
  9
$COORDS
 70
     1
  9
$SPLFRAME
 70
     0
  9
$SPLINETYPE
 70
     6
  9
$SPLINESEGS
 70
     8
  9
$ATTDIA
 70
     0
  9
$ATTREQ
 70
     1
  9
$HANDLING
 70
     1
  9
$HANDSEED
  5
77
  9
$SURFTAB1
 70
     6
  9
$SURFTAB2
 70
     6
  9
$SURFTYPE
 70
     6
  9
$SURFU
 70
     6
  9
$SURFV
 70
     6
  9
$UCSNAME
  2

  9
$UCSORG
 10
0.0
 20
0.0
 30
0.0
  9
$UCSXDIR
 10
1.0
 20
0.0
 30
0.0
  9
$UCSYDIR
 10
0.0
 20
1.0
 30
0.0
  9
$PUCSNAME
  2

  9
$PUCSORG
 10
0.0
 20
0.0
 30
0.0
  9
$PUCSXDIR
 10
1.0
 20
0.0
 30
0.0
  9
$PUCSYDIR
 10
0.0
 20
1.0
 30
0.0
  9
$USERI1
 70
     0
  9
$USERI2
 70
     0
  9
$USERI3
 70
     0
  9
$USERI4
 70
     0
  9
$USERI5
 70
     0
  9
$USERR1
 40
0.0
  9
$USERR2
 40
0.0
  9
$USERR3
 40
0.0
  9
$USERR4
 40
0.0
  9
$USERR5
 40
0.0
  9
$WORLDVIEW
 70
     1
  9
$SHADEDGE
 70
     3
  9
$SHADEDIF
 70
    70
  9
$TILEMODE
 70
     1
  9
$MAXACTVP
 70
    64
  9
$PINSBASE
 10
0.0
 20
0.0
 30
0.0
  9
$PLIMCHECK
 70
     0
  9
$PEXTMIN
 10
1.000000000000000E+20
 20
1.000000000000000E+20
 30
1.000000000000000E+20
  9
$PEXTMAX
 10
-1.000000000000000E+20
 20
-1.000000000000000E+20
 30
-1.000000000000000E+20
  9
$PLIMMIN
 10
0.0
 20
0.0
  9
$PLIMMAX
 10
12.0
 20
9.0
  9
$UNITMODE
 70
     0
  9
$VISRETAIN
 70
     1
  9
$PLINEGEN
 70
     0
  9
$PSLTSCALE
 70
     1
  9
$TREEDEPTH
 70
  3020
  9
$PICKSTYLE
 70
     1
  9
$CMLSTYLE
  2
STANDARD
  9
$CMLJUST
 70
     0
  9
$CMLSCALE
 40
1.0
  9
$SAVEIMAGES
 70
     1
  0
ENDSEC
  0
SECTION
  2
CLASSES
  0
CLASS
  1
ACDBDICTIONARYWDFLT
  2
AcDbDictionaryWithDefault
  3
ObjectDBX Classes
 90
    32768
280
     0
281
     0
  0
CLASS
  1
VISUALSTYLE
  2
AcDbVisualStyle
  3
ObjectDBX Classes
 90
     4095
280
     0
281
     0
  0
CLASS
  1
MATERIAL
  2
AcDbMaterial
  3
ObjectDBX Classes
 90
     1153
280
     0
281
     0
  0
CLASS
  1
SUN
  2
AcDbSun
  3
SCENEOE
 90
     1024
280
     0
281
     0
  0
CLASS
  1
DICTIONARYVAR
  2
AcDbDictionaryVar
  3
ObjectDBX Classes
 90
        0
280
     0
281
     0
  0
CLASS
  1
XRECORD
  2
AcDbXrecord
  3
AutoCAD 2000
 90
    32768
280
     0
281
     0
  0
CLASS
  1
LWPOLYLINE
  2
AcDbPolyline
  3
AutoCAD 2000
 90
    32768
280
     0
281
     1
  0
CLASS
  1
HATCH
  2
AcDbHatch
  3
AutoCAD 2000
 90
    32768
280
     0
281
     1
  0
CLASS
  1
ACDBPLACEHOLDER
  2
AcDbPlaceHolder
  3
ObjectDBX Classes
 90
        0
280
     0
281
     0
  0
CLASS
  1
LAYOUT
  2
AcDbLayout
  3
ObjectDBX Classes
 90
        0
280
     0
281
     0
  0
ENDSEC
  0
SECTION
  2
TABLES
  0
TABLE
  2
VPORT
  5
8
330
0
100
AcDbSymbolTable
 70
     1
  0
VPORT
  5
29
330
8
100
AcDbSymbolTableRecord
100
AcDbViewportTableRecord
  2
*ACTIVE
 70
     0
 10
0.0
 20
0.0
 11
1.0
 21
1.0
 12
0.0
 22
0.0
 13
0.0
 23
0.0
 14
0.5
 24
0.5
 15
0.5
 25
0.5
 16
0.0
 26
0.0
 36
1.0
 17
143.009680098053
 27
187.2912380174138
 37
0.0
 40
128.7304288275973
 41
0.551928558223436
 42
50.0
 43
0.0
 44
0.0
 50
0.0
 51
0.0
 71
     0
 72
   100
 73
     1
 74
     3
 75
     0
 76
     0
 77
     0
 78
     0
  0
ENDTAB
  0
TABLE
  2
LTYPE
  5
5
330
0
100
AcDbSymbolTable
 70
     1
  0
LTYPE
  5
14
330
5
100
AcDbSymbolTableRecord
100
AcDbLinetypeTableRecord
  2
BYBLOCK
 70
     0
  3

 72
    65
 73
     0
 40
0.0
  0
LTYPE
  5
15
330
5
100
AcDbSymbolTableRecord
100
AcDbLinetypeTableRecord
  2
BYLAYER
 70
     0
  3

 72
    65
 73
     0
 40
0.0
  0
LTYPE
  5
16
330
5
100
AcDbSymbolTableRecord
100
AcDbLinetypeTableRecord
  2
CONTINUOUS
 70
     0
  3
Solid line
 72
    65
 73
     0
 40
0.0
  0
ENDTAB
  0
TABLE
  2
LAYER
  5
2
330
0
100
AcDbSymbolTable
 70
     1
  0
LAYER
  5
10
330
2
100
AcDbSymbolTableRecord
100
AcDbLayerTableRecord
  2
0
 70
     0
 62
     7
  6
CONTINUOUS
  0
ENDTAB
  0
TABLE
  2
STYLE
  5
3
330
0
100
AcDbSymbolTable
 70
     1
  0
STYLE
  5
11
330
3
100
AcDbSymbolTableRecord
100
AcDbTextStyleTableRecord
  2
STANDARD
 70
     0
 40
0.0
 41
1.0
 50
0.0
 71
     0
 42
0.2
  3
txt
  4

  0
ENDTAB
  0
TABLE
  2
VIEW
  5
6
330
0
100
AcDbSymbolTable
 70
     0
  0
ENDTAB
  0
TABLE
  2
UCS
  5
7
330
0
100
AcDbSymbolTable
 70
     0
  0
ENDTAB
  0
TABLE
  2
APPID
  5
9
330
0
100
AcDbSymbolTable
 70
     1
  0
APPID
  5
12
330
9
100
AcDbSymbolTableRecord
100
AcDbRegAppTableRecord
  2
ACAD
 70
     0
  0
ENDTAB
  0
TABLE
  2
DIMSTYLE
  5
A
330
0
100
AcDbSymbolTable
 70
     1
  0
DIMSTYLE
105
27
330
A
100
AcDbSymbolTableRecord
100
AcDbDimStyleTableRecord
  2
STANDARD
 70
     0
  3

  4

  5

  6

  7

 40
1.0
 41
0.18
 42
0.0625
 43
0.38
 44
0.18
 45
0.0
 46
0.0
 47
0.0
 48
0.0
140
0.18
141
0.09
142
0.0
143
25.4
144
1.0
145
0.0
146
1.0
147
0.09
 71
     0
 72
     0
 73
     1
 74
     1
 75
     0
 76
     0
 77
     0
 78
     0
170
     0
171
     2
172
     0
173
     0
174
     0
175
     0
176
     0
177
     0
178
     0
270
     2
271
     4
272
     4
273
     2
274
     2
340
11
275
     0
280
     0
281
     0
282
     0
283
     1
284
     0
285
     0
286
     0
287
     3
288
     0
  0
ENDTAB
  0
TABLE
  2
BLOCK_RECORD
  5
1
330
0
100
AcDbSymbolTable
 70
     1
  0
BLOCK_RECORD
  5
1F
330
1
100
AcDbSymbolTableRecord
100
AcDbBlockTableRecord
  2
*MODEL_SPACE
  0
BLOCK_RECORD
  5
1B
330
1
100
AcDbSymbolTableRecord
100
AcDbBlockTableRecord
  2
*PAPER_SPACE
  0
ENDTAB
  0
ENDSEC
  0
SECTION
  2
BLOCKS
  0
BLOCK
  5
20
330
1F
100
AcDbEntity
  8
0
100
AcDbBlockBegin
  2
*MODEL_SPACE
 70
     0
 10
0.0
 20
0.0
 30
0.0
  3
*MODEL_SPACE
  1

  0
ENDBLK
  5
21
330
1F
100
AcDbEntity
  8
0
100
AcDbBlockEnd
  0
BLOCK
  5
1C
330
1B
100
AcDbEntity
 67
     1
  8
0
100
AcDbBlockBegin
  2
*PAPER_SPACE
 70
     0
 10
0.0
 20
0.0
 30
0.0
  3
*PAPER_SPACE
  1

  0
ENDBLK
  5
1D
330
1B
100
AcDbEntity
 67
     1
  8
0
100
AcDbBlockEnd
  0
ENDSEC
  0
SECTION
  2
ENTITIES
  0
SPLINE
  5
40
330
1F
100
AcDbEntity
  8
0
 62
     7
100
AcDbSpline
210
0.0
220
0.0
230
1.0
 70
    11
 71
     3
 72
    20
 73
    16
 74
     0
 42
0.0000000001
 43
0.0000000001
 12
1.0
 22
0.0
 32
0.0
 13
1.0
 23
0.0
 33
0.0
 40
0.0
 40
0.0
 40
0.0
 40
0.0
 40
1.0
 40
1.0
 40
1.0
 40
2.0
 40
2.0
 40
2.0
 40
3.0
 40
3.0
 40
3.0
 40
4.0
 40
4.0
 40
4.0
 40
5.0
 40
5.0
 40
5.0
 40
5.0
 10
119.7846801047051
 20
228.1564524370845
 30
0.0
 10
119.7846801047051
 20
226.2237502174252
 30
0.0
 10
118.2176767291139
 20
224.6569855040372
 30
0.0
 10
116.2846801047053
 20
224.6569855040372
 30
0.0
 10
114.3516834802979
 20
224.6569855040372
 30
0.0
 10
112.7846801047055
 20
226.2237502174252
 30
0.0
 10
112.7846801047055
 20
228.1564524370845
 30
0.0
 10
112.7846801047055
 20
230.0891546567438
 30
0.0
 10
114.3516834802979
 20
231.6559193701317
 30
0.0
 10
116.2846801047053
 20
231.6559193701317
 30
0.0
 10
118.2176767291139
 20
231.6559193701317
 30
0.0
 10
119.7846801047051
 20
230.0891546567438
 30
0.0
 10
119.7846801047051
 20
228.1564524370845
 30
0.0
 10
119.7846801047051
 20
228.1564524370845
 30
0.0
 10
119.7846801047051
 20
228.1564524370845
 30
0.0
 10
119.7846801047051
 20
228.1564524370845
 30
0.0
  0
SPLINE
  5
41
330
1F
100
AcDbEntity
  8
0
 62
     7
100
AcDbSpline
210
0.0
220
0.0
230
1.0
 70
    11
 71
     3
 72
    20
 73
    16
 74
     0
 42
0.0000000001
 43
0.0000000001
 12
1.0
 22
0.0
 32
0.0
 13
1.0
 23
0.0
 33
0.0
 40
0.0
 40
0.0
 40
0.0
 40
0.0
 40
1.0
 40
1.0
 40
1.0
 40
2.0
 40
2.0
 40
2.0
 40
3.0
 40
3.0
 40
3.0
 40
4.0
 40
4.0
 40
4.0
 40
5.0
 40
5.0
 40
5.0
 40
5.0
 10
137.5346801002678
 20
228.1564524370845
 30
0.0
 10
137.5346801002678
 20
226.2237502174252
 30
0.0
 10
135.9676767246767
 20
224.6569855040372
 30
0.0
 10
134.034680100268
 20
224.6569855040372
 30
0.0
 10
132.1016834758607
 20
224.6569855040372
 30
0.0
 10
130.5346801002686
 20
226.2237502174252
 30
0.0
 10
130.5346801002686
 20
228.1564524370845
 30
0.0
 10
130.5346801002686
 20
230.0891546567438
 30
0.0
 10
132.1016834758607
 20
231.6559193701317
 30
0.0
 10
134.034680100268
 20
231.6559193701317
 30
0.0
 10
135.9676767246767
 20
231.6559193701317
 30
0.0
 10
137.5346801002678
 20
230.0891546567438
 30
0.0
 10
137.5346801002678
 20
228.1564524370845
 30
0.0
 10
137.5346801002678
 20
228.1564524370845
 30
0.0
 10
137.5346801002678
 20
228.1564524370845
 30
0.0
 10
137.5346801002678
 20
228.1564524370845
 30
0.0
  0
SPLINE
  5
42
330
1F
100
AcDbEntity
  8
0
 62
     7
100
AcDbSpline
210
0.0
220
0.0
230
1.0
 70
    11
 71
     3
 72
    20
 73
    16
 74
     0
 42
0.0000000001
 43
0.0000000001
 12
1.0
 22
0.0
 32
0.0
 13
1.0
 23
0.0
 33
0.0
 40
0.0
 40
0.0
 40
0.0
 40
0.0
 40
1.0
 40
1.0
 40
1.0
 40
2.0
 40
2.0
 40
2.0
 40
3.0
 40
3.0
 40
3.0
 40
4.0
 40
4.0
 40
4.0
 40
5.0
 40
5.0
 40
5.0
 40
5.0
 10
137.5346801002678
 20
187.4064524472721
 30
0.0
 10
137.5346801002678
 20
185.4737502276128
 30
0.0
 10
135.9676767246767
 20
183.9069855142248
 30
0.0
 10
134.034680100268
 20
183.9069855142248
 30
0.0
 10
132.1016834758607
 20
183.9069855142248
 30
0.0
 10
130.5346801002686
 20
185.4737502276128
 30
0.0
 10
130.5346801002686
 20
187.4064524472721
 30
0.0
 10
130.5346801002686
 20
189.3391546669314
 30
0.0
 10
132.1016834758607
 20
190.9059193803193
 30
0.0
 10
134.034680100268
 20
190.9059193803193
 30
0.0
 10
135.9676767246767
 20
190.9059193803193
 30
0.0
 10
137.5346801002678
 20
189.3391546669314
 30
0.0
 10
137.5346801002678
 20
187.4064524472721
 30
0.0
 10
137.5346801002678
 20
187.4064524472721
 30
0.0
 10
137.5346801002678
 20
187.4064524472721
 30
0.0
 10
137.5346801002678
 20
187.4064524472721
 30
0.0
  0
SPLINE
  5
43
330
1F
100
AcDbEntity
  8
0
 62
     7
100
AcDbSpline
210
0.0
220
0.0
230
1.0
 70
    11
 71
     3
 72
    20
 73
    16
 74
     0
 42
0.0000000001
 43
0.0000000001
 12
1.0
 22
0.0
 32
0.0
 13
1.0
 23
0.0
 33
0.0
 40
0.0
 40
0.0
 40
0.0
 40
0.0
 40
1.0
 40
1.0
 40
1.0
 40
2.0
 40
2.0
 40
2.0
 40
3.0
 40
3.0
 40
3.0
 40
4.0
 40
4.0
 40
4.0
 40
5.0
 40
5.0
 40
5.0
 40
5.0
 10
161.6596800942368
 20
217.9689524396314
 30
0.0
 10
161.6596800942368
 20
216.0362502199721
 30
0.0
 10
160.0926767186457
 20
214.4694855065841
 30
0.0
 10
158.159680094237
 20
214.4694855065841
 30
0.0
 10
156.2266834698296
 20
214.4694855065841
 30
0.0
 10
154.6596800942372
 20
216.0362502199721
 30
0.0
 10
154.6596800942372
 20
217.9689524396314
 30
0.0
 10
154.6596800942372
 20
219.9016546592907
 30
0.0
 10
156.2266834698296
 20
221.4684193726786
 30
0.0
 10
158.159680094237
 20
221.4684193726786
 30
0.0
 10
160.0926767186457
 20
221.4684193726786
 30
0.0
 10
161.6596800942368
 20
219.9016546592907
 30
0.0
 10
161.6596800942368
 20
217.9689524396314
 30
0.0
 10
161.6596800942368
 20
217.9689524396314
 30
0.0
 10
161.6596800942368
 20
217.9689524396314
 30
0.0
 10
161.6596800942368
 20
217.9689524396314
 30
0.0
  0
SPLINE
  5
44
330
1F
100
AcDbEntity
  8
0
 62
     7
100
AcDbSpline
210
0.0
220
0.0
230
1.0
 70
    11
 71
     3
 72
    20
 73
    16
 74
     0
 42
0.0000000001
 43
0.0000000001
 12
1.0
 22
0.0
 32
0.0
 13
1.0
 23
0.0
 33
0.0
 40
0.0
 40
0.0
 40
0.0
 40
0.0
 40
1.0
 40
1.0
 40
1.0
 40
2.0
 40
2.0
 40
2.0
 40
3.0
 40
3.0
 40
3.0
 40
4.0
 40
4.0
 40
4.0
 40
5.0
 40
5.0
 40
5.0
 40
5.0
 10
119.7846801047051
 20
207.7814524421783
 30
0.0
 10
119.7846801047051
 20
205.848750222519
 30
0.0
 10
118.2176767291139
 20
204.281985509131
 30
0.0
 10
116.2846801047053
 20
204.281985509131
 30
0.0
 10
114.3516834802979
 20
204.281985509131
 30
0.0
 10
112.7846801047055
 20
205.848750222519
 30
0.0
 10
112.7846801047055
 20
207.7814524421783
 30
0.0
 10
112.7846801047055
 20
209.7141546618376
 30
0.0
 10
114.3516834802979
 20
211.2809193752255
 30
0.0
 10
116.2846801047053
 20
211.2809193752255
 30
0.0
 10
118.2176767291139
 20
211.2809193752255
 30
0.0
 10
119.7846801047051
 20
209.7141546618376
 30
0.0
 10
119.7846801047051
 20
207.7814524421783
 30
0.0
 10
119.7846801047051
 20
207.7814524421783
 30
0.0
 10
119.7846801047051
 20
207.7814524421783
 30
0.0
 10
119.7846801047051
 20
207.7814524421783
 30
0.0
  0
SPLINE
  5
45
330
1F
100
AcDbEntity
  8
0
 62
     7
100
AcDbSpline
210
0.0
220
0.0
230
1.0
 70
    11
 71
     3
 72
    20
 73
    16
 74
     0
 42
0.0000000001
 43
0.0000000001
 12
1.0
 22
0.0
 32
0.0
 13
1.0
 23
0.0
 33
0.0
 40
0.0
 40
0.0
 40
0.0
 40
0.0
 40
1.0
 40
1.0
 40
1.0
 40
2.0
 40
2.0
 40
2.0
 40
3.0
 40
3.0
 40
3.0
 40
4.0
 40
4.0
 40
4.0
 40
5.0
 40
5.0
 40
5.0
 40
5.0
 10
172.9346800914178
 20
187.4064524472721
 30
0.0
 10
172.9346800914178
 20
185.4737502276128
 30
0.0
 10
171.3676767158267
 20
183.9069855142248
 30
0.0
 10
169.434680091418
 20
183.9069855142248
 30
0.0
 10
167.5016834670107
 20
183.9069855142248
 30
0.0
 10
165.9346800914182
 20
185.4737502276128
 30
0.0
 10
165.9346800914182
 20
187.4064524472721
 30
0.0
 10
165.9346800914182
 20
189.3391546669314
 30
0.0
 10
167.5016834670107
 20
190.9059193803193
 30
0.0
 10
169.434680091418
 20
190.9059193803193
 30
0.0
 10
171.3676767158267
 20
190.9059193803193
 30
0.0
 10
172.9346800914178
 20
189.3391546669314
 30
0.0
 10
172.9346800914178
 20
187.4064524472721
 30
0.0
 10
172.9346800914178
 20
187.4064524472721
 30
0.0
 10
172.9346800914178
 20
187.4064524472721
 30
0.0
 10
172.9346800914178
 20
187.4064524472721
 30
0.0
  0
SPLINE
  5
46
330
1F
100
AcDbEntity
  8
0
 62
     7
100
AcDbSpline
210
0.0
220
0.0
230
1.0
 70
    11
 71
     3
 72
    20
 73
    16
 74
     0
 42
0.0000000001
 43
0.0000000001
 12
1.0
 22
0.0
 32
0.0
 13
1.0
 23
0.0
 33
0.0
 40
0.0
 40
0.0
 40
0.0
 40
0.0
 40
1.0
 40
1.0
 40
1.0
 40
2.0
 40
2.0
 40
2.0
 40
3.0
 40
3.0
 40
3.0
 40
4.0
 40
4.0
 40
4.0
 40
5.0
 40
5.0
 40
5.0
 40
5.0
 10
119.784680104707
 20
169.1084524518466
 30
0.0
 10
119.784680104707
 20
167.1757502321873
 30
0.0
 10
118.2176767291159
 20
165.6089855187993
 30
0.0
 10
116.2846801047072
 20
165.6089855187993
 30
0.0
 10
114.3516834802998
 20
165.6089855187993
 30
0.0
 10
112.7846801047074
 20
167.1757502321873
 30
0.0
 10
112.7846801047074
 20
169.1084524518466
 30
0.0
 10
112.7846801047074
 20
171.0411546715059
 30
0.0
 10
114.3516834802998
 20
172.6079193848938
 30
0.0
 10
116.2846801047072
 20
172.6079193848938
 30
0.0
 10
118.2176767291159
 20
172.6079193848938
 30
0.0
 10
119.784680104707
 20
171.0411546715059
 30
0.0
 10
119.784680104707
 20
169.1084524518466
 30
0.0
 10
119.784680104707
 20
169.1084524518466
 30
0.0
 10
119.784680104707
 20
169.1084524518466
 30
0.0
 10
119.784680104707
 20
169.1084524518466
 30
0.0
  0
SPLINE
  5
47
330
1F
100
AcDbEntity
  8
0
 62
     7
100
AcDbSpline
210
0.0
220
0.0
230
1.0
 70
    11
 71
     3
 72
    20
 73
    16
 74
     0
 42
0.0000000001
 43
0.0000000001
 12
1.0
 22
0.0
 32
0.0
 13
1.0
 23
0.0
 33
0.0
 40
0.0
 40
0.0
 40
0.0
 40
0.0
 40
1.0
 40
1.0
 40
1.0
 40
2.0
 40
2.0
 40
2.0
 40
3.0
 40
3.0
 40
3.0
 40
4.0
 40
4.0
 40
4.0
 40
5.0
 40
5.0
 40
5.0
 40
5.0
 10
137.5346801002678
 20
169.1084524518466
 30
0.0
 10
137.5346801002678
 20
167.1757502321873
 30
0.0
 10
135.9676767246767
 20
165.6089855187993
 30
0.0
 10
134.034680100268
 20
165.6089855187993
 30
0.0
 10
132.1016834758607
 20
165.6089855187993
 30
0.0
 10
130.5346801002686
 20
167.1757502321873
 30
0.0
 10
130.5346801002686
 20
169.1084524518466
 30
0.0
 10
130.5346801002686
 20
171.0411546715059
 30
0.0
 10
132.1016834758607
 20
172.6079193848938
 30
0.0
 10
134.034680100268
 20
172.6079193848938
 30
0.0
 10
135.9676767246767
 20
172.6079193848938
 30
0.0
 10
137.5346801002678
 20
171.0411546715059
 30
0.0
 10
137.5346801002678
 20
169.1084524518466
 30
0.0
 10
137.5346801002678
 20
169.1084524518466
 30
0.0
 10
137.5346801002678
 20
169.1084524518466
 30
0.0
 10
137.5346801002678
 20
169.1084524518466
 30
0.0
  0
SPLINE
  5
48
330
1F
100
AcDbEntity
  8
0
 62
     7
100
AcDbSpline
210
0.0
220
0.0
230
1.0
 70
    11
 71
     3
 72
    20
 73
    16
 74
     0
 42
0.0000000001
 43
0.0000000001
 12
1.0
 22
0.0
 32
0.0
 13
1.0
 23
0.0
 33
0.0
 40
0.0
 40
0.0
 40
0.0
 40
0.0
 40
1.0
 40
1.0
 40
1.0
 40
2.0
 40
2.0
 40
2.0
 40
3.0
 40
3.0
 40
3.0
 40
4.0
 40
4.0
 40
4.0
 40
5.0
 40
5.0
 40
5.0
 40
5.0
 10
155.2346800958433
 20
169.1084524518466
 30
0.0
 10
155.2346800958433
 20
167.1757502321873
 30
0.0
 10
153.6676767202519
 20
165.6089855187993
 30
0.0
 10
151.7346800958432
 20
165.6089855187993
 30
0.0
 10
149.8016834714358
 20
165.6089855187993
 30
0.0
 10
148.2346800958434
 20
167.1757502321873
 30
0.0
 10
148.2346800958434
 20
169.1084524518466
 30
0.0
 10
148.2346800958434
 20
171.0411546715059
 30
0.0
 10
149.8016834714358
 20
172.6079193848938
 30
0.0
 10
151.7346800958432
 20
172.6079193848938
 30
0.0
 10
153.6676767202519
 20
172.6079193848938
 30
0.0
 10
155.2346800958433
 20
171.0411546715059
 30
0.0
 10
155.2346800958433
 20
169.1084524518466
 30
0.0
 10
155.2346800958433
 20
169.1084524518466
 30
0.0
 10
155.2346800958433
 20
169.1084524518466
 30
0.0
 10
155.2346800958433
 20
169.1084524518466
 30
0.0
  0
SPLINE
  5
49
330
1F
100
AcDbEntity
  8
0
 62
     7
100
AcDbSpline
210
0.0
220
0.0
230
1.0
 70
    11
 71
     3
 72
    20
 73
    16
 74
     0
 42
0.0000000001
 43
0.0000000001
 12
1.0
 22
0.0
 32
0.0
 13
1.0
 23
0.0
 33
0.0
 40
0.0
 40
0.0
 40
0.0
 40
0.0
 40
1.0
 40
1.0
 40
1.0
 40
2.0
 40
2.0
 40
2.0
 40
3.0
 40
3.0
 40
3.0
 40
4.0
 40
4.0
 40
4.0
 40
5.0
 40
5.0
 40
5.0
 40
5.0
 10
172.9346800914178
 20
169.1084524518466
 30
0.0
 10
172.9346800914178
 20
167.1757502321873
 30
0.0
 10
171.3676767158267
 20
165.6089855187993
 30
0.0
 10
169.434680091418
 20
165.6089855187993
 30
0.0
 10
167.5016834670107
 20
165.6089855187993
 30
0.0
 10
165.9346800914182
 20
167.1757502321873
 30
0.0
 10
165.9346800914182
 20
169.1084524518466
 30
0.0
 10
165.9346800914182
 20
171.0411546715059
 30
0.0
 10
167.5016834670107
 20
172.6079193848938
 30
0.0
 10
169.434680091418
 20
172.6079193848938
 30
0.0
 10
171.3676767158267
 20
172.6079193848938
 30
0.0
 10
172.9346800914178
 20
171.0411546715059
 30
0.0
 10
172.9346800914178
 20
169.1084524518466
 30
0.0
 10
172.9346800914178
 20
169.1084524518466
 30
0.0
 10
172.9346800914178
 20
169.1084524518466
 30
0.0
 10
172.9346800914178
 20
169.1084524518466
 30
0.0
  0
SPLINE
  5
4A
330
1F
100
AcDbEntity
  8
0
 62
     7
100
AcDbSpline
210
0.0
220
0.0
230
1.0
 70
    11
 71
     3
 72
    20
 73
    16
 74
     0
 42
0.0000000001
 43
0.0000000001
 12
1.0
 22
0.0
 32
0.0
 13
1.0
 23
0.0
 33
0.0
 40
0.0
 40
0.0
 40
0.0
 40
0.0
 40
1.0
 40
1.0
 40
1.0
 40
2.0
 40
2.0
 40
2.0
 40
3.0
 40
3.0
 40
3.0
 40
4.0
 40
4.0
 40
4.0
 40
5.0
 40
5.0
 40
5.0
 40
5.0
 10
119.784680104707
 20
152.8684524559065
 30
0.0
 10
119.784680104707
 20
150.9357502362466
 30
0.0
 10
118.2176767291159
 20
149.368985522858
 30
0.0
 10
116.2846801047072
 20
149.368985522858
 30
0.0
 10
114.3516834802998
 20
149.368985522858
 30
0.0
 10
112.7846801047074
 20
150.9357502362466
 30
0.0
 10
112.7846801047074
 20
152.8684524559065
 30
0.0
 10
112.7846801047074
 20
154.8011546755665
 30
0.0
 10
114.3516834802998
 20
156.3679193889548
 30
0.0
 10
116.2846801047072
 20
156.3679193889548
 30
0.0
 10
118.2176767291159
 20
156.3679193889548
 30
0.0
 10
119.784680104707
 20
154.8011546755665
 30
0.0
 10
119.784680104707
 20
152.8684524559065
 30
0.0
 10
119.784680104707
 20
152.8684524559065
 30
0.0
 10
119.784680104707
 20
152.8684524559065
 30
0.0
 10
119.784680104707
 20
152.8684524559065
 30
0.0
  0
SPLINE
  5
4B
330
1F
100
AcDbEntity
  8
0
 62
     7
100
AcDbSpline
210
0.0
220
0.0
230
1.0
 70
    11
 71
     3
 72
    20
 73
    16
 74
     0
 42
0.0000000001
 43
0.0000000001
 12
1.0
 22
0.0
 32
0.0
 13
1.0
 23
0.0
 33
0.0
 40
0.0
 40
0.0
 40
0.0
 40
0.0
 40
1.0
 40
1.0
 40
1.0
 40
2.0
 40
2.0
 40
2.0
 40
3.0
 40
3.0
 40
3.0
 40
4.0
 40
4.0
 40
4.0
 40
5.0
 40
5.0
 40
5.0
 40
5.0
 10
137.5346801002678
 20
152.8684524559065
 30
0.0
 10
137.5346801002678
 20
150.9357502362466
 30
0.0
 10
135.9676767246767
 20
149.368985522858
 30
0.0
 10
134.034680100268
 20
149.368985522858
 30
0.0
 10
132.1016834758607
 20
149.368985522858
 30
0.0
 10
130.5346801002686
 20
150.9357502362466
 30
0.0
 10
130.5346801002686
 20
152.8684524559065
 30
0.0
 10
130.5346801002686
 20
154.8011546755665
 30
0.0
 10
132.1016834758607
 20
156.3679193889548
 30
0.0
 10
134.034680100268
 20
156.3679193889548
 30
0.0
 10
135.9676767246767
 20
156.3679193889548
 30
0.0
 10
137.5346801002678
 20
154.8011546755665
 30
0.0
 10
137.5346801002678
 20
152.8684524559065
 30
0.0
 10
137.5346801002678
 20
152.8684524559065
 30
0.0
 10
137.5346801002678
 20
152.8684524559065
 30
0.0
 10
137.5346801002678
 20
152.8684524559065
 30
0.0
  0
SPLINE
  5
4C
330
1F
100
AcDbEntity
  8
0
 62
     7
100
AcDbSpline
210
0.0
220
0.0
230
1.0
 70
    11
 71
     3
 72
    20
 73
    16
 74
     0
 42
0.0000000001
 43
0.0000000001
 12
1.0
 22
0.0
 32
0.0
 13
1.0
 23
0.0
 33
0.0
 40
0.0
 40
0.0
 40
0.0
 40
0.0
 40
1.0
 40
1.0
 40
1.0
 40
2.0
 40
2.0
 40
2.0
 40
3.0
 40
3.0
 40
3.0
 40
4.0
 40
4.0
 40
4.0
 40
5.0
 40
5.0
 40
5.0
 40
5.0
 10
155.2346800958433
 20
152.8684524559065
 30
0.0
 10
155.2346800958433
 20
150.9357502362466
 30
0.0
 10
153.6676767202519
 20
149.368985522858
 30
0.0
 10
151.7346800958432
 20
149.368985522858
 30
0.0
 10
149.8016834714358
 20
149.368985522858
 30
0.0
 10
148.2346800958434
 20
150.9357502362466
 30
0.0
 10
148.2346800958434
 20
152.8684524559065
 30
0.0
 10
148.2346800958434
 20
154.8011546755665
 30
0.0
 10
149.8016834714358
 20
156.3679193889548
 30
0.0
 10
151.7346800958432
 20
156.3679193889548
 30
0.0
 10
153.6676767202519
 20
156.3679193889548
 30
0.0
 10
155.2346800958433
 20
154.8011546755665
 30
0.0
 10
155.2346800958433
 20
152.8684524559065
 30
0.0
 10
155.2346800958433
 20
152.8684524559065
 30
0.0
 10
155.2346800958433
 20
152.8684524559065
 30
0.0
 10
155.2346800958433
 20
152.8684524559065
 30
0.0
  0
SPLINE
  5
4D
330
1F
100
AcDbEntity
  8
0
 62
     7
100
AcDbSpline
210
0.0
220
0.0
230
1.0
 70
    11
 71
     3
 72
    20
 73
    16
 74
     0
 42
0.0000000001
 43
0.0000000001
 12
1.0
 22
0.0
 32
0.0
 13
1.0
 23
0.0
 33
0.0
 40
0.0
 40
0.0
 40
0.0
 40
0.0
 40
1.0
 40
1.0
 40
1.0
 40
2.0
 40
2.0
 40
2.0
 40
3.0
 40
3.0
 40
3.0
 40
4.0
 40
4.0
 40
4.0
 40
5.0
 40
5.0
 40
5.0
 40
5.0
 10
172.9346800914178
 20
152.8684524559062
 30
0.0
 10
172.9346800914178
 20
150.9357502362472
 30
0.0
 10
171.3676767158267
 20
149.3689855228587
 30
0.0
 10
169.434680091418
 20
149.3689855228587
 30
0.0
 10
167.5016834670107
 20
149.3689855228587
 30
0.0
 10
165.9346800914182
 20
150.9357502362472
 30
0.0
 10
165.9346800914182
 20
152.8684524559062
 30
0.0
 10
165.9346800914182
 20
154.8011546755662
 30
0.0
 10
167.5016834670107
 20
156.3679193889544
 30
0.0
 10
169.434680091418
 20
156.3679193889544
 30
0.0
 10
171.3676767158267
 20
156.3679193889544
 30
0.0
 10
172.9346800914178
 20
154.8011546755662
 30
0.0
 10
172.9346800914178
 20
152.8684524559062
 30
0.0
 10
172.9346800914178
 20
152.8684524559062
 30
0.0
 10
172.9346800914178
 20
152.8684524559062
 30
0.0
 10
172.9346800914178
 20
152.8684524559062
 30
0.0
  0
SPLINE
  5
4E
330
1F
100
AcDbEntity
  8
0
 62
     7
100
AcDbSpline
210
0.0
220
0.0
230
1.0
 70
    11
 71
     3
 72
    20
 73
    16
 74
     0
 42
0.0000000001
 43
0.0000000001
 12
1.0
 22
0.0
 32
0.0
 13
1.0
 23
0.0
 33
0.0
 40
0.0
 40
0.0
 40
0.0
 40
0.0
 40
1.0
 40
1.0
 40
1.0
 40
2.0
 40
2.0
 40
2.0
 40
3.0
 40
3.0
 40
3.0
 40
4.0
 40
4.0
 40
4.0
 40
5.0
 40
5.0
 40
5.0
 40
5.0
 10
119.784680104707
 20
139.2084524593216
 30
0.0
 10
119.784680104707
 20
137.2757502396623
 30
0.0
 10
118.2176767291159
 20
135.7089855262744
 30
0.0
 10
116.2846801047072
 20
135.7089855262744
 30
0.0
 10
114.3516834802998
 20
135.7089855262744
 30
0.0
 10
112.7846801047074
 20
137.2757502396623
 30
0.0
 10
112.7846801047074
 20
139.2084524593216
 30
0.0
 10
112.7846801047074
 20
141.1411546789809
 30
0.0
 10
114.3516834802998
 20
142.7079193923689
 30
0.0
 10
116.2846801047072
 20
142.7079193923689
 30
0.0
 10
118.2176767291159
 20
142.7079193923689
 30
0.0
 10
119.784680104707
 20
141.1411546789809
 30
0.0
 10
119.784680104707
 20
139.2084524593216
 30
0.0
 10
119.784680104707
 20
139.2084524593216
 30
0.0
 10
119.784680104707
 20
139.2084524593216
 30
0.0
 10
119.784680104707
 20
139.2084524593216
 30
0.0
  0
SPLINE
  5
4F
330
1F
100
AcDbEntity
  8
0
 62
     7
100
AcDbSpline
210
0.0
220
0.0
230
1.0
 70
    11
 71
     3
 72
    20
 73
    16
 74
     0
 42
0.0000000001
 43
0.0000000001
 12
1.0
 22
0.0
 32
0.0
 13
1.0
 23
0.0
 33
0.0
 40
0.0
 40
0.0
 40
0.0
 40
0.0
 40
1.0
 40
1.0
 40
1.0
 40
2.0
 40
2.0
 40
2.0
 40
3.0
 40
3.0
 40
3.0
 40
4.0
 40
4.0
 40
4.0
 40
5.0
 40
5.0
 40
5.0
 40
5.0
 10
172.9346800914178
 20
139.2084524593216
 30
0.0
 10
172.9346800914178
 20
137.2757502396623
 30
0.0
 10
171.3676767158267
 20
135.7089855262744
 30
0.0
 10
169.434680091418
 20
135.7089855262744
 30
0.0
 10
167.5016834670107
 20
135.7089855262744
 30
0.0
 10
165.9346800914182
 20
137.2757502396623
 30
0.0
 10
165.9346800914182
 20
139.2084524593216
 30
0.0
 10
165.9346800914182
 20
141.1411546789809
 30
0.0
 10
167.5016834670107
 20
142.7079193923689
 30
0.0
 10
169.434680091418
 20
142.7079193923689
 30
0.0
 10
171.3676767158267
 20
142.7079193923689
 30
0.0
 10
172.9346800914178
 20
141.1411546789809
 30
0.0
 10
172.9346800914178
 20
139.2084524593216
 30
0.0
 10
172.9346800914178
 20
139.2084524593216
 30
0.0
 10
172.9346800914178
 20
139.2084524593216
 30
0.0
 10
172.9346800914178
 20
139.2084524593216
 30
0.0
  0
SPLINE
  5
50
330
1F
100
AcDbEntity
  8
0
 62
     7
100
AcDbSpline
210
0.0
220
0.0
230
1.0
 70
    11
 71
     3
 72
    20
 73
    16
 74
     0
 42
0.0000000001
 43
0.0000000001
 12
1.0
 22
0.0
 32
0.0
 13
1.0
 23
0.0
 33
0.0
 40
0.0
 40
0.0
 40
0.0
 40
0.0
 40
1.0
 40
1.0
 40
1.0
 40
2.0
 40
2.0
 40
2.0
 40
3.0
 40
3.0
 40
3.0
 40
4.0
 40
4.0
 40
4.0
 40
5.0
 40
5.0
 40
5.0
 40
5.0
 10
119.7846801047054
 20
187.4064524472721
 30
0.0
 10
119.7846801047054
 20
185.4737502276128
 30
0.0
 10
118.2176767291139
 20
183.9069855142248
 30
0.0
 10
116.2846801047056
 20
183.9069855142248
 30
0.0
 10
114.3516834802982
 20
183.9069855142248
 30
0.0
 10
112.7846801047058
 20
185.4737502276128
 30
0.0
 10
112.7846801047058
 20
187.4064524472721
 30
0.0
 10
112.7846801047058
 20
189.3391546669314
 30
0.0
 10
114.3516834802982
 20
190.9059193803193
 30
0.0
 10
116.2846801047056
 20
190.9059193803193
 30
0.0
 10
118.2176767291139
 20
190.9059193803193
 30
0.0
 10
119.7846801047054
 20
189.3391546669314
 30
0.0
 10
119.7846801047054
 20
187.4064524472721
 30
0.0
 10
119.7846801047054
 20
187.4064524472721
 30
0.0
 10
119.7846801047054
 20
187.4064524472721
 30
0.0
 10
119.7846801047054
 20
187.4064524472721
 30
0.0
  0
SPLINE
  5
51
330
1F
100
AcDbEntity
  8
0
 62
     7
100
AcDbSpline
210
0.0
220
0.0
230
1.0
 70
    11
 71
     3
 72
    20
 73
    16
 74
     0
 42
0.0000000001
 43
0.0000000001
 12
1.0
 22
0.0
 32
0.0
 13
1.0
 23
0.0
 33
0.0
 40
0.0
 40
0.0
 40
0.0
 40
0.0
 40
1.0
 40
1.0
 40
1.0
 40
2.0
 40
2.0
 40
2.0
 40
3.0
 40
3.0
 40
3.0
 40
4.0
 40
4.0
 40
4.0
 40
5.0
 40
5.0
 40
5.0
 40
5.0
 10
155.2346800958433
 20
187.4064524472721
 30
0.0
 10
155.2346800958433
 20
185.4737502276128
 30
0.0
 10
153.6676767202519
 20
183.9069855142248
 30
0.0
 10
151.7346800958432
 20
183.9069855142248
 30
0.0
 10
149.8016834714358
 20
183.9069855142248
 30
0.0
 10
148.2346800958434
 20
185.4737502276128
 30
0.0
 10
148.2346800958434
 20
187.4064524472721
 30
0.0
 10
148.2346800958434
 20
189.3391546669314
 30
0.0
 10
149.8016834714358
 20
190.9059193803193
 30
0.0
 10
151.7346800958432
 20
190.9059193803193
 30
0.0
 10
153.6676767202519
 20
190.9059193803193
 30
0.0
 10
155.2346800958433
 20
189.3391546669314
 30
0.0
 10
155.2346800958433
 20
187.4064524472721
 30
0.0
 10
155.2346800958433
 20
187.4064524472721
 30
0.0
 10
155.2346800958433
 20
187.4064524472721
 30
0.0
 10
155.2346800958433
 20
187.4064524472721
 30
0.0
  0
POLYLINE
  5
52
330
1F
100
AcDbEntity
  8
0
 62
     7
100
AcDb2dPolyline
 66
     1
 10
0.0
 20
0.0
 30
0.0
  0
VERTEX
  5
53
330
52
100
AcDbEntity
  8
0
 62
     7
100
AcDbVertex
100
AcDb2dVertex
 10
107.4846801069057
 20
123.1564524633346
 30
0.0
  0
VERTEX
  5
54
330
52
100
AcDbEntity
  8
0
 62
     7
100
AcDbVertex
100
AcDb2dVertex
 10
178.2846800892059
 20
123.1564524633346
 30
0.0
  0
VERTEX
  5
55
330
52
100
AcDbEntity
  8
0
 62
     7
100
AcDbVertex
100
AcDb2dVertex
 10
178.2846800892059
 20
251.6564524312096
 30
0.0
  0
VERTEX
  5
56
330
52
100
AcDbEntity
  8
0
 62
     7
100
AcDbVertex
100
AcDb2dVertex
 10
107.4846801069057
 20
251.6564524312096
 30
0.0
  0
VERTEX
  5
57
330
52
100
AcDbEntity
  8
0
 62
     7
100
AcDbVertex
100
AcDb2dVertex
 10
107.4846801069057
 20
123.1564524633346
 30
0.0
  0
SEQEND
  5
58
330
52
100
AcDbEntity
  8
0
 62
     7
  0
SPLINE
  5
59
330
1F
100
AcDbEntity
  8
0
 62
     7
100
AcDbSpline
210
0.0
220
0.0
230
1.0
 70
    11
 71
     3
 72
    23
 73
    19
 74
     0
 42
0.0000000001
 43
0.0000000001
 12
1.0
 22
0.0
 32
0.0
 13
1.0
 23
0.0
 33
0.0
 40
0.0
 40
0.0
 40
0.0
 40
0.0
 40
1.0
 40
1.0
 40
1.0
 40
2.0
 40
2.0
 40
2.0
 40
3.0
 40
3.0
 40
3.0
 40
4.0
 40
4.0
 40
4.0
 40
5.0
 40
5.0
 40
5.0
 40
6.0
 40
6.0
 40
6.0
 40
6.0
 10
114.2346801050304
 20
247.1566808892245
 30
0.0
 10
114.2346801050304
 20
247.1566808892245
 30
0.0
 10
115.7346801050304
 20
247.1566808892245
 30
0.0
 10
115.7346801050304
 20
247.1566808892245
 30
0.0
 10
116.5631072297775
 20
247.1566808892245
 30
0.0
 10
117.2346801050302
 20
247.8281514806769
 30
0.0
 10
117.2346801050302
 20
248.6564524319599
 30
0.0
 10
117.2346801050302
 20
249.4847533832423
 30
0.0
 10
116.5631072297775
 20
250.1562239746947
 30
0.0
 10
115.7346801050304
 20
250.1562239746947
 30
0.0
 10
115.7346801050304
 20
250.1562239746947
 30
0.0
 10
114.2346801050304
 20
250.1562239746947
 30
0.0
 10
114.2346801050304
 20
250.1562239746947
 30
0.0
 10
113.4062529802852
 20
250.1562239746947
 30
0.0
 10
112.7346801050309
 20
249.4847533832423
 30
0.0
 10
112.7346801050309
 20
248.6564524319599
 30
0.0
 10
112.7346801050309
 20
247.8281514806769
 30
0.0
 10
113.4062529802852
 20
247.1566808892245
 30
0.0
 10
114.2346801050304
 20
247.1566808892245
 30
0.0
  0
SPLINE
  5
5A
330
1F
100
AcDbEntity
  8
0
 62
     7
100
AcDbSpline
210
0.0
220
0.0
230
1.0
 70
    11
 71
     3
 72
    23
 73
    19
 74
     0
 42
0.0000000001
 43
0.0000000001
 12
1.0
 22
0.0
 32
0.0
 13
1.0
 23
0.0
 33
0.0
 40
0.0
 40
0.0
 40
0.0
 40
0.0
 40
1.0
 40
1.0
 40
1.0
 40
2.0
 40
2.0
 40
2.0
 40
3.0
 40
3.0
 40
3.0
 40
4.0
 40
4.0
 40
4.0
 40
5.0
 40
5.0
 40
5.0
 40
6.0
 40
6.0
 40
6.0
 40
6.0
 10
170.0346800910815
 20
247.1566808892245
 30
0.0
 10
170.0346800910815
 20
247.1566808892245
 30
0.0
 10
171.5346800910806
 20
247.1566808892245
 30
0.0
 10
171.5346800910806
 20
247.1566808892245
 30
0.0
 10
172.3631072158267
 20
247.1566808892245
 30
0.0
 10
173.0346800910803
 20
247.8281514806769
 30
0.0
 10
173.0346800910803
 20
248.6564524319599
 30
0.0
 10
173.0346800910803
 20
249.4847533832423
 30
0.0
 10
172.3631072158273
 20
250.1562239746947
 30
0.0
 10
171.5346800910806
 20
250.1562239746947
 30
0.0
 10
171.5346800910806
 20
250.1562239746947
 30
0.0
 10
170.0346800910815
 20
250.1562239746947
 30
0.0
 10
170.0346800910815
 20
250.1562239746947
 30
0.0
 10
169.2062529663344
 20
250.1562239746947
 30
0.0
 10
168.5346800910811
 20
249.4847533832423
 30
0.0
 10
168.5346800910811
 20
248.6564524319599
 30
0.0
 10
168.5346800910811
 20
247.8281514806769
 30
0.0
 10
169.2062529663344
 20
247.1566808892245
 30
0.0
 10
170.0346800910815
 20
247.1566808892245
 30
0.0
  0
SPLINE
  5
5B
330
1F
100
AcDbEntity
  8
0
 62
     7
100
AcDbSpline
210
0.0
220
0.0
230
1.0
 70
    11
 71
     3
 72
    23
 73
    19
 74
     0
 42
0.0000000001
 43
0.0000000001
 12
1.0
 22
0.0
 32
0.0
 13
1.0
 23
0.0
 33
0.0
 40
0.0
 40
0.0
 40
0.0
 40
0.0
 40
1.0
 40
1.0
 40
1.0
 40
2.0
 40
2.0
 40
2.0
 40
3.0
 40
3.0
 40
3.0
 40
4.0
 40
4.0
 40
4.0
 40
5.0
 40
5.0
 40
5.0
 40
6.0
 40
6.0
 40
6.0
 40
6.0
 10
170.0346800910805
 20
124.6566809198501
 30
0.0
 10
170.0346800910805
 20
124.6566809198501
 30
0.0
 10
171.5346800910806
 20
124.6566809198501
 30
0.0
 10
171.5346800910806
 20
124.6566809198501
 30
0.0
 10
172.363107215826
 20
124.6566809198501
 30
0.0
 10
173.0346800910803
 20
125.3281515113025
 30
0.0
 10
173.0346800910803
 20
126.1564524625852
 30
0.0
 10
173.0346800910803
 20
126.9847534138679
 30
0.0
 10
172.3631072158277
 20
127.656224005319
 30
0.0
 10
171.5346800910806
 20
127.656224005319
 30
0.0
 10
171.5346800910806
 20
127.656224005319
 30
0.0
 10
170.0346800910805
 20
127.656224005319
 30
0.0
 10
170.0346800910805
 20
127.656224005319
 30
0.0
 10
169.2062529663344
 20
127.656224005319
 30
0.0
 10
168.5346800910811
 20
126.9847534138679
 30
0.0
 10
168.5346800910811
 20
126.1564524625852
 30
0.0
 10
168.5346800910811
 20
125.3281515113025
 30
0.0
 10
169.2062529663344
 20
124.6566809198501
 30
0.0
 10
170.0346800910805
 20
124.6566809198501
 30
0.0
  0
SPLINE
  5
5C
330
1F
100
AcDbEntity
  8
0
 62
     7
100
AcDbSpline
210
0.0
220
0.0
230
1.0
 70
    11
 71
     3
 72
    23
 73
    19
 74
     0
 42
0.0000000001
 43
0.0000000001
 12
1.0
 22
0.0
 32
0.0
 13
1.0
 23
0.0
 33
0.0
 40
0.0
 40
0.0
 40
0.0
 40
0.0
 40
1.0
 40
1.0
 40
1.0
 40
2.0
 40
2.0
 40
2.0
 40
3.0
 40
3.0
 40
3.0
 40
4.0
 40
4.0
 40
4.0
 40
5.0
 40
5.0
 40
5.0
 40
6.0
 40
6.0
 40
6.0
 40
6.0
 10
114.2346801050304
 20
124.6566809198501
 30
0.0
 10
114.2346801050304
 20
124.6566809198501
 30
0.0
 10
115.7346801050304
 20
124.6566809198501
 30
0.0
 10
115.7346801050304
 20
124.6566809198501
 30
0.0
 10
116.5631072297775
 20
124.6566809198501
 30
0.0
 10
117.2346801050302
 20
125.3281515113025
 30
0.0
 10
117.2346801050302
 20
126.1564524625852
 30
0.0
 10
117.2346801050302
 20
126.9847534138679
 30
0.0
 10
116.5631072297775
 20
127.656224005319
 30
0.0
 10
115.7346801050304
 20
127.656224005319
 30
0.0
 10
115.7346801050304
 20
127.656224005319
 30
0.0
 10
114.2346801050304
 20
127.656224005319
 30
0.0
 10
114.2346801050304
 20
127.656224005319
 30
0.0
 10
113.4062529802839
 20
127.656224005319
 30
0.0
 10
112.7346801050309
 20
126.9847534138679
 30
0.0
 10
112.7346801050309
 20
126.1564524625852
 30
0.0
 10
112.7346801050309
 20
125.3281515113025
 30
0.0
 10
113.4062529802839
 20
124.6566809198501
 30
0.0
 10
114.2346801050304
 20
124.6566809198501
 30
0.0
  0
SPLINE
  5
5D
330
1F
100
AcDbEntity
  8
0
 62
     7
100
AcDbSpline
210
0.0
220
0.0
230
1.0
 70
    11
 71
     3
 72
    20
 73
    16
 74
     0
 42
0.0000000001
 43
0.0000000001
 12
1.0
 22
0.0
 32
0.0
 13
1.0
 23
0.0
 33
0.0
 40
0.0
 40
0.0
 40
0.0
 40
0.0
 40
1.0
 40
1.0
 40
1.0
 40
2.0
 40
2.0
 40
2.0
 40
3.0
 40
3.0
 40
3.0
 40
4.0
 40
4.0
 40
4.0
 40
5.0
 40
5.0
 40
5.0
 40
5.0
 10
135.5396801002678
 20
207.7814524421789
 30
0.0
 10
135.5396801002678
 20
206.950390487725
 30
0.0
 10
134.8658686487629
 20
206.276681660968
 30
0.0
 10
134.034680100268
 20
206.276681660968
 30
0.0
 10
133.2034915517741
 20
206.276681660968
 30
0.0
 10
132.5296801002683
 20
206.950390487725
 30
0.0
 10
132.5296801002683
 20
207.7814524421789
 30
0.0
 10
132.5296801002683
 20
208.6125143966316
 30
0.0
 10
133.2034915517741
 20
209.2862232233886
 30
0.0
 10
134.034680100268
 20
209.2862232233886
 30
0.0
 10
134.8658686487629
 20
209.2862232233886
 30
0.0
 10
135.5396801002678
 20
208.6125143966316
 30
0.0
 10
135.5396801002678
 20
207.7814524421789
 30
0.0
 10
135.5396801002678
 20
207.7814524421789
 30
0.0
 10
135.5396801002678
 20
207.7814524421789
 30
0.0
 10
135.5396801002678
 20
207.7814524421789
 30
0.0
  0
MTEXT
  5
5E
330
1F
100
AcDbEntity
  8
0
 62
     7
100
AcDbMText
 10
162.7511446228051
 20
132.4620619310255
 30
0.0
 40
2.49766666604225
 41
0.0
 71
     7
 72
     1
  1
\fFutura Medium|b0|i0|c0|p34;\W1;Mix Out
  0
MTEXT
  5
5F
330
1F
100
AcDbEntity
  8
0
 62
     7
100
AcDbMText
 10
112.8680339213171
 20
159.9441326324298
 30
0.0
 40
2.49766666604225
 41
0.0
 71
     7
 72
     1
  1
\fFutura Medium|b0|i0|c0|p34;\W1;Saw
  0
MTEXT
  5
60
330
1F
100
AcDbEntity
  8
0
 62
     7
100
AcDbMText
 10
132.118345864698
 20
159.9441339781702
 30
0.0
 40
2.49766666604225
 41
0.0
 71
     7
 72
     1
  1
\fFutura Medium|b0|i0|c0|p34;\W1;Tri
  0
MTEXT
  5
61
330
1F
100
AcDbEntity
  8
0
 62
     7
100
AcDbMText
 10
148.3240354961882
 20
159.9441339781702
 30
0.0
 40
2.49766666604225
 41
0.0
 71
     7
 72
     1
  1
\fFutura Medium|b0|i0|c0|p34;\W1;Sine
  0
MTEXT
  5
62
330
1F
100
AcDbEntity
  8
0
 62
     7
100
AcDbMText
 10
165.3901018947809
 20
159.9441326324298
 30
0.0
 40
2.49766666604225
 41
0.0
 71
     7
 72
     1
  1
\fFutura Medium|b0|i0|c0|p34;\W1;Pulse
  0
MTEXT
  5
63
330
1F
100
AcDbEntity
  8
0
 62
     7
100
AcDbMText
 10
110.5081663915082
 20
132.4620615945904
 30
0.0
 40
2.49766666604225
 41
0.0
 71
     7
 72
     1
  1
\fFutura Medium|b0|i0|c0|p34;\W1;Sync In
  0
MTEXT
  5
64
330
1F
100
AcDbEntity
  8
0
 62
     7
100
AcDbMText
 10
164.5650196935593
 20
178.0323514599237
 30
0.0
 40
2.49766666604225
 41
0.0
 71
     7
 72
     1
  1
\fFutura Medium|b0|i0|c0|p34;\W1;Width
  0
MTEXT
  5
65
330
1F
100
AcDbEntity
  8
0
 62
     7
100
AcDbMText
 10
129.5155117982689
 20
178.0323514599237
 30
0.0
 40
2.49766666604225
 41
0.0
 71
     7
 72
     1
  1
\fFutura Medium|b0|i0|c0|p34;\W1;PWM
  0
MTEXT
  5
66
330
1F
100
AcDbEntity
  8
0
 62
     7
100
AcDbMText
 10
142.6723099245912
 20
178.0321044324472
 30
0.0
 40
2.49766666604225
 41
0.0
 71
     7
 72
     1
  1
\fFutura Medium|b0|i0|c0|p34;\W1;PWM Level
  0
MTEXT
  5
67
330
1F
100
AcDbEntity
  8
0
 62
     7
100
AcDbMText
 10
110.1903348011471
 20
218.1935130527514
 30
0.0
 40
2.49766666604225
 41
0.0
 71
     7
 72
     1
  1
\fFutura Medium|b0|i0|c0|p34;\W1;1V/Oct
  0
MTEXT
  5
68
330
1F
100
AcDbEntity
  8
0
 62
     7
100
AcDbMText
 10
128.3296130389354
 20
218.1935157442323
 30
0.0
 40
2.49766666604225
 41
0.0
 71
     7
 72
     1
  1
\fFutura Medium|b0|i0|c0|p34;\W1;Coarse
  0
MTEXT
  5
69
330
1F
100
AcDbEntity
  8
0
 62
     7
100
AcDbMText
 10
154.8773250616496
 20
208.7221381195453
 30
0.0
 40
2.49766666604225
 41
0.0
 71
     7
 72
     1
  1
\fFutura Medium|b0|i0|c0|p34;\W1;Fine
  0
MTEXT
  5
6A
330
1F
100
AcDbEntity
  8
0
 62
     7
100
AcDbMText
 10
110.9593447089952
 20
198.7675885445328
 30
0.0
 40
2.49766666604225
 41
0.0
 71
     7
 72
     1
  1
\fFutura Medium|b0|i0|c0|p34;\W1;Lin FM
  0
MTEXT
  5
6B
330
1F
100
AcDbEntity
  8
0
 62
     7
100
AcDbMText
 10
109.1490062440751
 20
178.0320432853667
 30
0.0
 40
2.49766666604225
 41
0.0
 71
     7
 72
     1
  1
\fFutura Medium|b0|i0|c0|p34;\W1;FM Level
  0
ENDSEC
  0
SECTION
  2
OBJECTS
  0
DICTIONARY
  5
C
330
0
100
AcDbDictionary
  3
ACAD_GROUP
350
D
  3
ACAD_LAYOUT
350
1A
  3
ACAD_MATERIAL
350
3B
  3
ACAD_MLEADERSTYLE
350
6E
  3
ACAD_MLINESTYLE
350
17
  3
ACAD_PLOTSETTINGS
350
19
  3
ACAD_VISUALSTYLE
350
2A
  3
ACDBVARIABLEDICTIONARY
350
6C
1001
ACAD
1000
TREAT_AS_HARD
1070
     0
  0
DICTIONARY
  5
D
102
{ACAD_REACTORS
330
C
102
}
330
C
100
AcDbDictionary
1001
ACAD
1000
TREAT_AS_HARD
1070
     0
  0
DICTIONARY
  5
1A
102
{ACAD_REACTORS
330
C
102
}
330
C
100
AcDbDictionary
1001
ACAD
1000
TREAT_AS_HARD
1070
     0
  0
DICTIONARY
  5
3B
102
{ACAD_REACTORS
330
C
102
}
330
C
100
AcDbDictionary
  3
BYBLOCK
350
3D
  3
BYLAYER
350
3C
  3
GLOBAL
350
3E
1001
ACAD
1000
TREAT_AS_HARD
1070
     0
  0
DICTIONARY
  5
6E
102
{ACAD_REACTORS
330
C
102
}
330
C
100
AcDbDictionary
1001
ACAD
1000
TREAT_AS_HARD
1070
     0
  0
DICTIONARY
  5
17
102
{ACAD_REACTORS
330
C
102
}
330
C
100
AcDbDictionary
  3
STANDARD
350
18
1001
ACAD
1000
TREAT_AS_HARD
1070
     0
  0
DICTIONARY
  5
19
102
{ACAD_REACTORS
330
C
102
}
330
C
100
AcDbDictionary
1001
ACAD
1000
TREAT_AS_HARD
1070
     0
  0
DICTIONARY
  5
2A
102
{ACAD_REACTORS
330
C
102
}
330
C
100
AcDbDictionary
  3
2DWIREFRAME
350
2F
  3
3DWIREFRAME
350
30
  3
3D_HIDDEN
350
31
  3
BASIC
350
32
  3
BRIGHTEN
350
36
  3
COLORCHANGE
350
3A
  3
CONCEPTUAL
350
34
  3
DIM
350
35
  3
FACEPATTERN
350
39
  3
FLAT
350
2B
  3
FLATWITHEDGES
350
2C
  3
GOURAUD
350
2D
  3
GOURAUDWITHEDGES
350
2E
  3
LINEPATTERN
350
38
  3
REALISTIC
350
33
  3
THICKEN
350
37
1001
ACAD
1000
TREAT_AS_HARD
1070
     0
  0
DICTIONARY
  5
6C
102
{ACAD_REACTORS
330
C
102
}
330
C
100
AcDbDictionary
  3
DIMASSOC
350
6F
  3
HIDETEXT
350
70
1001
ACAD
1000
TREAT_AS_HARD
1070
     0
  0
MATERIAL
  5
3D
102
{ACAD_REACTORS
330
3B
102
}
102
{ACAD_XDICTIONARY
360
73
102
}
330
3B
100
AcDbMaterial
  1
ByBlock
  0
MATERIAL
  5
3C
102
{ACAD_REACTORS
330
3B
102
}
102
{ACAD_XDICTIONARY
360
71
102
}
330
3B
100
AcDbMaterial
  1
ByLayer
  0
MATERIAL
  5
3E
102
{ACAD_REACTORS
330
3B
102
}
102
{ACAD_XDICTIONARY
360
75
102
}
330
3B
100
AcDbMaterial
  1
Global
  0
MLINESTYLE
  5
18
102
{ACAD_REACTORS
330
17
102
}
330
17
100
AcDbMlineStyle
  2
Standard
 70
     0
  3

 62
   256
 51
90.0
 52
90.0
 71
     2
 49
0.5
 62
   256
  6
BYLAYER
 49
-0.5
 62
   256
  6
BYLAYER
  0
ACAD_PROXY_OBJECT
  5
2F
102
{ACAD_REACTORS
330
2A
102
}
330
2A
100
AcDbZombieObject
 90
      499
 91
      501
 93
      436
310
42CC9915DA5C99599C985B595049028333333333333E3BF0000000000000FB0107901411070040501600405405064090741402480A0340
1001
ACAD
1000
AcDbSavedByObjectVersion
1070
     0
  0
ACAD_PROXY_OBJECT
  5
30
102
{ACAD_REACTORS
330
2A
102
}
330
2A
100
AcDbZombieObject
 90
      499
 91
      501
 93
      436
310
42CCD915DA5C99599C985B595059028333333333333E3BF0000000000000FB0107901411070040501600405405064090741402480A0340
1001
ACAD
1000
AcDbSavedByObjectVersion
1070
     0
  0
ACAD_PROXY_OBJECT
  5
31
102
{ACAD_REACTORS
330
2A
102
}
330
2A
100
AcDbZombieObject
 90
      499
 91
      501
 93
      500
310
424CD108121A5919195B90640502408333333333333E3BF0000000000000FB01079024090700405020000000000001110200405405064090740C02480A0340
1001
ACAD
1000
AcDbSavedByObjectVersion
1070
     0
  0
ACAD_PROXY_OBJECT
  5
32
102
{ACAD_REACTORS
330
2A
102
}
330
2A
100
AcDbZombieObject
 90
      499
 91
      501
 93
      388
310
4150985CDA58D07406404333333333333E3BF0000000000000FB0107A41107004050150841D405064090741402480A0350
1001
ACAD
1000
AcDbSavedByObjectVersion
1070
     0
  0
ACAD_PROXY_OBJECT
  5
36
102
{ACAD_REACTORS
330
2A
102
}
330
2A
100
AcDbZombieObject
 90
      499
 91
      501
 93
      428
310
42109C9A59DA1D195B90C409028333333333333E3BF0000000000000FB010790141107004050150841D405064090741402480A029950
1001
ACAD
1000
AcDbSavedByObjectVersion
1070
     0
  0
ACAD_PROXY_OBJECT
  5
3A
102
{ACAD_REACTORS
330
2A
102
}
330
2A
100
AcDbZombieObject
 90
      499
 91
      501
 93
      452
310
42D0DBDB1BDC90DA185B99D95104090240C333333333333E3BF0000000000000FB0108901411070040501508421405064090741402480A0350
1001
ACAD
1000
AcDbSavedByObjectVersion
1070
     0
  0
ACAD_PROXY_OBJECT
  5
34
102
{ACAD_REACTORS
330
2A
102
}
330
2A
100
AcDbZombieObject
 90
      499
 91
      501
 93
      500
310
4290DBDB98D95C1D1D585B10940D028333333333333E3BF0000000000000FB0107902409070040501000000000000111010841D405064090740C02480A0340
1001
ACAD
1000
AcDbSavedByObjectVersion
1070
     0
  0
ACAD_PROXY_OBJECT
  5
35
102
{ACAD_REACTORS
330
2A
102
}
330
2A
100
AcDbZombieObject
 90
      499
 91
      501
 93
      412
310
40D11A5B50B409028333333333333E3BF0000000000000FB010790141107004050150841D405064090741402480A02677FFFFFD0
1001
ACAD
1000
AcDbSavedByObjectVersion
1070
     0
  0
ACAD_PROXY_OBJECT
  5
39
102
{ACAD_REACTORS
330
2A
102
}
330
2A
100
AcDbZombieObject
 90
      499
 91
      501
 93
      444
310
42D19858D95C185D1D195C9B90F409028333333333333E3BF0000000000000FB010790141107004050150841D405064090741402480A0350
1001
ACAD
1000
AcDbSavedByObjectVersion
1070
     0
  0
ACAD_PROXY_OBJECT
  5
2B
102
{ACAD_REACTORS
330
2A
102
}
330
2A
100
AcDbZombieObject
 90
      499
 91
      501
 93
      388
310
41119B185D240901404333333333333E3BF0000000000000F9010740A41107004050150841D405064090741402480A1B50
1001
ACAD
1000
AcDbSavedByObjectVersion
1070
     0
  0
ACAD_PROXY_OBJECT
  5
2C
102
{ACAD_REACTORS
330
2A
102
}
330
2A
100
AcDbZombieObject
 90
      499
 91
      501
 93
      476
310
43519B185D15DA5D1A115919D95CD0140901404333333333333E3BF0000000000000F9010740901411070040501600405405064090741402480A1B50
1001
ACAD
1000
AcDbSavedByObjectVersion
1070
     0
  0
ACAD_PROXY_OBJECT
  5
2D
102
{ACAD_REACTORS
330
2A
102
}
330
2A
100
AcDbZombieObject
 90
      499
 91
      501
 93
      412
310
41D1DBDD5C985D5910240902404333333333333E3BF0000000000000F9010740A411070040501641D405064090741402480A1B50
1001
ACAD
1000
AcDbSavedByObjectVersion
1070
     0
  0
ACAD_PROXY_OBJECT
  5
2E
102
{ACAD_REACTORS
330
2A
102
}
330
2A
100
AcDbZombieObject
 90
      499
 91
      501
 93
      500
310
4411DBDD5C985D5915DA5D1A115919D95CD0340902404333333333333E3BF0000000000000F9010740901411070040501600405405064090741402480A1B50
1001
ACAD
1000
AcDbSavedByObjectVersion
1070
     0
  0
ACAD_PROXY_OBJECT
  5
38
102
{ACAD_REACTORS
330
2A
102
}
330
2A
100
AcDbZombieObject
 90
      499
 91
      501
 93
      444
310
42D31A5B995C185D1D195C9B90E409028333333333333E3BF0000000000000FB010790141107004050750841D405064090741402483A0350
1001
ACAD
1000
AcDbSavedByObjectVersion
1070
     0
  0
ACAD_PROXY_OBJECT
  5
33
102
{ACAD_REACTORS
330
2A
102
}
330
2A
100
AcDbZombieObject
 90
      499
 91
      501
 93
      420
310
425499585B1A5CDD1A58D08409028333333333333E3BF0000000000000FB01079019070040501508421405064090741402480A1B40
1001
ACAD
1000
AcDbSavedByObjectVersion
1070
     0
  0
ACAD_PROXY_OBJECT
  5
37
102
{ACAD_REACTORS
330
2A
102
}
330
2A
100
AcDbZombieObject
 90
      499
 91
      501
 93
      412
310
41D51A1A58DAD95B90D409028333333333333E3BF0000000000000FB010790141107004050150C41D405064090741402480A0350
1001
ACAD
1000
AcDbSavedByObjectVersion
1070
     0
  0
DICTIONARYVAR
  5
6F
102
{ACAD_REACTORS
330
6C
102
}
330
6C
100
DictionaryVariables
280
     0
  1
2
  0
DICTIONARYVAR
  5
70
102
{ACAD_REACTORS
330
6C
102
}
330
6C
100
DictionaryVariables
280
     0
  1
1
  0
DICTIONARY
  5
73
330
3D
100
AcDbDictionary
  3
ACAD_XREC_ROUNDTRIP
360
74
1001
ACAD
1000
TREAT_AS_HARD
1070
     1
  0
DICTIONARY
  5
71
330
3C
100
AcDbDictionary
  3
ACAD_XREC_ROUNDTRIP
360
72
1001
ACAD
1000
TREAT_AS_HARD
1070
     1
  0
DICTIONARY
  5
75
330
3E
100
AcDbDictionary
  3
ACAD_XREC_ROUNDTRIP
360
76
1001
ACAD
1000
TREAT_AS_HARD
1070
     1
  0
XRECORD
  5
74
102
{ACAD_REACTORS
330
73
102
}
330
73
100
AcDbXrecord
102
MATERIAL
148
0.0
149
0.0
149
0.0
 93
        0
 94
      127
282
     0
 72
     1
 77
     1
171
     1
175
     1
179
     1
273
     0
  0
XRECORD
  5
72
102
{ACAD_REACTORS
330
71
102
}
330
71
100
AcDbXrecord
102
MATERIAL
148
0.0
149
0.0
149
0.0
 93
        0
 94
      127
282
     0
 72
     1
 77
     1
171
     1
175
     1
179
     1
273
     0
  0
XRECORD
  5
76
102
{ACAD_REACTORS
330
75
102
}
330
75
100
AcDbXrecord
102
MATERIAL
148
0.0
149
0.0
149
0.0
 93
        0
 94
      127
282
     0
 72
     1
 77
     1
171
     1
175
     1
179
     1
273
     0
  0
ENDSEC
  0
EOF
